<?xml version="1.0" standalone="no"?><!-- Generator: Gravit.io --><svg xmlns="http://www.w3.org/2000/svg" xmlns:xlink="http://www.w3.org/1999/xlink" style="isolation:isolate" viewBox="0 0 512 511.998" width="512" height="511.998"><g id="null"><g id="null"><path d=" M 458.602 54.522 L 445.707 54.522 L 445.707 33.104 C 445.707 27.471 441.14 22.905 435.508 22.905 C 429.876 22.905 425.309 27.471 425.309 33.104 L 425.309 54.522 L 86.693 54.522 L 86.693 33.104 C 86.693 27.471 82.127 22.905 76.494 22.905 C 70.861 22.905 66.295 27.471 66.295 33.104 L 66.295 54.522 L 53.398 54.522 C 23.955 54.522 0 78.477 0 107.92 L 0 342.798 C 0 372.242 23.955 396.197 53.398 396.197 L 153.447 396.197 C 158.565 448.271 202.603 489.093 256 489.093 C 309.397 489.093 353.435 448.271 358.553 396.197 L 458.602 396.197 C 488.046 396.197 512 372.241 512 342.798 L 512 107.92 C 512 78.476 488.046 54.522 458.602 54.522 Z  M 338.026 396.067 C 333.459 433.639 303.601 463.498 266.028 468.065 C 265.507 467.985 245.735 467.656 245.974 468.065 C 208.402 463.498 178.543 433.639 173.976 396.067 C 174.268 396.59 173.939 376.159 173.976 376.012 C 178.543 338.44 208.402 308.581 245.974 304.014 C 246.437 304.32 265.507 303.661 266.028 304.014 C 303.6 308.581 333.459 338.44 338.026 376.012 C 338.005 376.044 338.005 396.476 338.026 396.067 Z  M 491.604 342.798 C 491.604 360.994 476.8 375.798 458.604 375.798 L 358.547 375.798 C 353.389 323.764 309.37 282.985 256.001 282.985 C 202.632 282.985 158.613 323.763 153.455 375.798 L 53.398 375.798 C 35.203 375.798 20.398 360.994 20.398 342.798 L 20.398 134.077 L 491.603 134.077 L 491.603 342.798 L 491.604 342.798 Z  M 491.604 113.677 L 20.398 113.677 L 20.398 107.92 C 20.398 89.724 35.202 74.92 53.398 74.92 L 66.295 74.92 L 66.295 88.179 C 66.295 93.812 70.861 98.378 76.494 98.378 C 82.127 98.378 86.693 93.812 86.693 88.179 L 86.693 74.92 L 425.309 74.92 L 425.309 88.179 C 425.309 93.812 429.876 98.378 435.508 98.378 C 441.14 98.378 445.707 93.812 445.707 88.179 L 445.707 74.92 L 458.604 74.92 C 476.8 74.92 491.604 89.724 491.604 107.92 L 491.604 113.677 Z " fill="rgb(255,255,255)"/></g></g><g id="null"><g id="null"><path d=" M 63.235 160.596 L 56.096 160.596 C 50.463 160.596 45.897 165.162 45.897 170.795 C 45.897 176.428 50.463 180.994 56.096 180.994 L 63.235 180.994 C 68.868 180.994 73.434 176.428 73.434 170.795 C 73.434 165.162 68.868 160.596 63.235 160.596 Z " fill="rgb(255,255,255)"/></g></g><g id="null"><g id="null"><path d=" M 119.331 160.596 L 112.192 160.596 C 106.559 160.596 101.993 165.162 101.993 170.795 C 101.993 176.428 106.559 180.994 112.192 180.994 L 119.331 180.994 C 124.964 180.994 129.531 176.428 129.531 170.795 C 129.531 165.162 124.964 160.596 119.331 160.596 Z " fill="rgb(255,255,255)"/></g></g><g id="null"><g id="null"><path d=" M 175.427 160.596 L 168.288 160.596 C 162.655 160.596 158.089 165.162 158.089 170.795 C 158.089 176.428 162.655 180.994 168.288 180.994 L 175.427 180.994 C 181.06 180.994 185.626 176.428 185.626 170.795 C 185.626 165.162 181.06 160.596 175.427 160.596 Z " fill="rgb(255,255,255)"/></g></g><g id="null"><g id="null"><path d=" M 231.523 160.596 L 224.384 160.596 C 218.751 160.596 214.185 165.162 214.185 170.795 C 214.185 176.428 218.751 180.994 224.384 180.994 L 231.523 180.994 C 237.156 180.994 241.722 176.428 241.722 170.795 C 241.722 165.162 237.156 160.596 231.523 160.596 Z " fill="rgb(255,255,255)"/></g></g><g id="null"><g id="null"><path d=" M 287.619 160.596 L 280.48 160.596 C 274.848 160.596 270.281 165.162 270.281 170.795 C 270.281 176.428 274.848 180.994 280.48 180.994 L 287.619 180.994 C 293.251 180.994 297.818 176.428 297.818 170.795 C 297.818 165.162 293.251 160.596 287.619 160.596 Z " fill="rgb(255,255,255)"/></g></g><g id="null"><g id="null"><path d=" M 343.714 160.596 L 336.575 160.596 C 330.943 160.596 326.376 165.162 326.376 170.795 C 326.376 176.428 330.943 180.994 336.575 180.994 L 343.714 180.994 C 349.346 180.994 353.913 176.428 353.913 170.795 C 353.913 165.162 349.346 160.596 343.714 160.596 Z " fill="rgb(255,255,255)"/></g></g><g id="null"><g id="null"><path d=" M 399.811 160.596 L 392.672 160.596 C 387.04 160.596 382.472 165.162 382.472 170.795 C 382.472 176.428 387.04 180.994 392.672 180.994 L 399.811 180.994 C 405.443 180.994 410.01 176.428 410.01 170.795 C 410.01 165.162 405.443 160.596 399.811 160.596 Z " fill="rgb(255,255,255)"/></g></g><g id="null"><g id="null"><path d=" M 455.906 160.596 L 448.767 160.596 C 443.135 160.596 438.568 165.162 438.568 170.795 C 438.568 176.428 443.135 180.994 448.767 180.994 L 455.906 180.994 C 461.538 180.994 466.105 176.428 466.105 170.795 C 466.106 165.162 461.538 160.596 455.906 160.596 Z " fill="rgb(255,255,255)"/></g></g><g id="null"><g id="null"><path d=" M 63.235 214.991 L 56.096 214.991 C 50.463 214.991 45.897 219.557 45.897 225.19 C 45.897 230.823 50.463 235.389 56.096 235.389 L 63.235 235.389 C 68.868 235.389 73.434 230.823 73.434 225.19 C 73.434 219.557 68.868 214.991 63.235 214.991 Z " fill="rgb(255,255,255)"/></g></g><g id="null"><g id="null"><path d=" M 119.331 214.991 L 112.192 214.991 C 106.559 214.991 101.993 219.557 101.993 225.19 C 101.993 230.823 106.559 235.389 112.192 235.389 L 119.331 235.389 C 124.964 235.389 129.531 230.823 129.531 225.19 C 129.531 219.557 124.964 214.991 119.331 214.991 Z " fill="rgb(255,255,255)"/></g></g><g id="null"><g id="null"><path d=" M 175.427 214.991 L 168.288 214.991 C 162.655 214.991 158.089 219.557 158.089 225.19 C 158.089 230.823 162.655 235.389 168.288 235.389 L 175.427 235.389 C 181.06 235.389 185.626 230.823 185.626 225.19 C 185.626 219.557 181.06 214.991 175.427 214.991 Z " fill="rgb(255,255,255)"/></g></g><g id="null"><g id="null"><path d=" M 231.523 214.991 L 224.384 214.991 C 218.751 214.991 214.185 219.557 214.185 225.19 C 214.185 230.823 218.751 235.389 224.384 235.389 L 231.523 235.389 C 237.156 235.389 241.722 230.823 241.722 225.19 C 241.722 219.557 237.156 214.991 231.523 214.991 Z " fill="rgb(255,255,255)"/></g></g><g id="null"><g id="null"><path d=" M 287.619 214.991 L 280.48 214.991 C 274.848 214.991 270.281 219.557 270.281 225.19 C 270.281 230.823 274.848 235.389 280.48 235.389 L 287.619 235.389 C 293.251 235.389 297.818 230.823 297.818 225.19 C 297.818 219.557 293.251 214.991 287.619 214.991 Z " fill="rgb(255,255,255)"/></g></g><g id="null"><g id="null"><path d=" M 343.714 214.991 L 336.575 214.991 C 330.943 214.991 326.376 219.557 326.376 225.19 C 326.376 230.823 330.943 235.389 336.575 235.389 L 343.714 235.389 C 349.346 235.389 353.913 230.823 353.913 225.19 C 353.913 219.557 349.346 214.991 343.714 214.991 Z " fill="rgb(255,255,255)"/></g></g><g id="null"><g id="null"><path d=" M 399.811 214.991 L 392.672 214.991 C 387.04 214.991 382.472 219.557 382.472 225.19 C 382.472 230.823 387.04 235.389 392.672 235.389 L 399.811 235.389 C 405.443 235.389 410.01 230.823 410.01 225.19 C 410.01 219.557 405.443 214.991 399.811 214.991 Z " fill="rgb(255,255,255)"/></g></g><g id="null"><g id="null"><path d=" M 455.906 214.991 L 448.767 214.991 C 443.135 214.991 438.568 219.557 438.568 225.19 C 438.568 230.823 443.135 235.389 448.767 235.389 L 455.906 235.389 C 461.538 235.389 466.105 230.823 466.105 225.19 C 466.106 219.557 461.538 214.991 455.906 214.991 Z " fill="rgb(255,255,255)"/></g></g><g id="null"><g id="null"><path d=" M 63.235 269.387 L 56.096 269.387 C 50.463 269.387 45.897 273.953 45.897 279.586 C 45.897 285.219 50.463 289.785 56.096 289.785 L 63.235 289.785 C 68.868 289.785 73.434 285.219 73.434 279.586 C 73.434 273.954 68.868 269.387 63.235 269.387 Z " fill="rgb(255,255,255)"/></g></g><g id="null"><g id="null"><path d=" M 119.331 269.387 L 112.192 269.387 C 106.559 269.387 101.993 273.953 101.993 279.586 C 101.993 285.219 106.559 289.785 112.192 289.785 L 119.331 289.785 C 124.964 289.785 129.531 285.219 129.531 279.586 C 129.531 273.954 124.964 269.387 119.331 269.387 Z " fill="rgb(255,255,255)"/></g></g><g id="null"><g id="null"><path d=" M 175.427 269.387 L 168.288 269.387 C 162.655 269.387 158.089 273.953 158.089 279.586 C 158.089 285.219 162.655 289.785 168.288 289.785 L 175.427 289.785 C 181.06 289.785 185.626 285.219 185.626 279.586 C 185.626 273.954 181.06 269.387 175.427 269.387 Z " fill="rgb(255,255,255)"/></g></g><g id="null"><g id="null"><path d=" M 343.714 269.387 L 336.575 269.387 C 330.943 269.387 326.376 273.953 326.376 279.586 C 326.376 285.219 330.943 289.785 336.575 289.785 L 343.714 289.785 C 349.346 289.785 353.913 285.219 353.913 279.586 C 353.913 273.954 349.346 269.387 343.714 269.387 Z " fill="rgb(255,255,255)"/></g></g><g id="null"><g id="null"><path d=" M 399.811 269.387 L 392.672 269.387 C 387.04 269.387 382.472 273.953 382.472 279.586 C 382.472 285.219 387.04 289.785 392.672 289.785 L 399.811 289.785 C 405.443 289.785 410.01 285.219 410.01 279.586 C 410.01 273.954 405.443 269.387 399.811 269.387 Z " fill="rgb(255,255,255)"/></g></g><g id="null"><g id="null"><path d=" M 455.906 269.387 L 448.767 269.387 C 443.135 269.387 438.568 273.953 438.568 279.586 C 438.568 285.219 443.135 289.785 448.767 289.785 L 455.906 289.785 C 461.538 289.785 466.105 285.219 466.105 279.586 C 466.106 273.954 461.538 269.387 455.906 269.387 Z " fill="rgb(255,255,255)"/></g></g><g id="null"><g id="null"><path d=" M 63.235 323.783 L 56.096 323.783 C 50.463 323.783 45.897 328.349 45.897 333.982 C 45.897 339.615 50.463 344.181 56.096 344.181 L 63.235 344.181 C 68.868 344.181 73.434 339.615 73.434 333.982 C 73.434 328.349 68.868 323.783 63.235 323.783 Z " fill="rgb(255,255,255)"/></g></g><g id="null"><g id="null"><path d=" M 119.331 323.783 L 112.192 323.783 C 106.559 323.783 101.993 328.349 101.993 333.982 C 101.993 339.615 106.559 344.181 112.192 344.181 L 119.331 344.181 C 124.964 344.181 129.531 339.615 129.531 333.982 C 129.531 328.349 124.964 323.783 119.331 323.783 Z " fill="rgb(255,255,255)"/></g></g><g id="null"><g id="null"><path d=" M 399.811 323.783 L 392.672 323.783 C 387.04 323.783 382.472 328.349 382.472 333.982 C 382.472 339.615 387.04 344.181 392.672 344.181 L 399.811 344.181 C 405.443 344.181 410.01 339.615 410.01 333.982 C 410.01 328.349 405.443 323.783 399.811 323.783 Z " fill="rgb(255,255,255)"/></g></g><g id="null"><g id="null"><path d=" M 455.906 323.783 L 448.767 323.783 C 443.135 323.783 438.568 328.349 438.568 333.982 C 438.568 339.615 443.135 344.181 448.767 344.181 L 455.906 344.181 C 461.538 344.181 466.105 339.615 466.105 333.982 C 466.105 328.349 461.538 323.783 455.906 323.783 Z " fill="rgb(255,255,255)"/></g></g><path d="M 246.809 395.261 L 246.809 441.643 L 246.828 441.643 C 247.049 446.285 250.888 449.987 255.585 449.987 C 260.282 449.987 264.121 446.285 264.342 441.643 L 264.355 441.643 L 264.355 395.261 L 310.311 395.261 C 315.15 395.261 319.078 391.332 319.078 386.493 C 319.078 381.654 315.15 377.726 310.311 377.726 C 310.205 377.726 310.099 377.728 309.994 377.732 L 264.355 377.732 L 264.355 331.355 L 264.343 331.355 C 264.127 326.707 260.286 323 255.585 323 C 250.884 323 247.043 326.707 246.827 331.355 L 246.809 331.355 L 246.809 377.732 L 201.689 377.732 L 201.689 377.732 L 200.859 377.732 L 200.859 377.77 C 196.409 378.189 192.922 381.94 192.922 386.499 C 192.922 391.058 196.409 394.809 200.859 395.227 L 200.859 395.261 L 201.372 395.261 C 201.477 395.264 201.583 395.266 201.689 395.266 C 201.795 395.266 201.901 395.264 202.006 395.261 L 246.809 395.261 Z" style="stroke:none;fill:#FFFFFF;stroke-miterlimit:10;"/></svg>