<?xml version="1.0" encoding="utf-8"?>
<!-- Generator: Adobe Illustrator 18.0.0, SVG Export Plug-In . SVG Version: 6.00 Build 0)  -->
<!DOCTYPE svg PUBLIC "-//W3C//DTD SVG 1.1//EN" "http://www.w3.org/Graphics/SVG/1.1/DTD/svg11.dtd">
<svg version="1.1" id="Layer_1" xmlns="http://www.w3.org/2000/svg" xmlns:xlink="http://www.w3.org/1999/xlink" x="0px" y="0px"
	 viewBox="106.8 369.3 872.2 337.8" enable-background="new 106.8 369.3 872.2 337.8" xml:space="preserve">
<path fill="#EC3C34" d="M927.2,536.2h-30.4c-13.2-78.7-82.2-121.5-164.2-121.5c-81.1,0-147.8,39.8-163.3,115.6
	c-13.5-11.4-29-17.3-45.1-17.3c-16.1,0-31.6,6.1-45.1,17.3c-15.8-75.8-83.7-115.6-163.6-115.6c-87.8,0-159.2,49.8-166.2,135.5h-28.4
	c-7.6,0-14,6.1-14,14c0,7.6,6.1,14,14,14h28.4c7,85.5,78.4,128.8,166.2,128.8c89.9,0,164.2-48.3,166.5-138.1
	c12-17.9,26.6-27.8,41.9-27.8c15.2,0,30.1,10,41.9,27.8c2.3,89.9,75.5,138.1,166.5,138.1c91.3,0,166.8-50.9,166.8-142.8h27.8
	c7.6,0,14-6.1,14-14S934.8,536.2,927.2,536.2z M315.5,679c-77.3,0-139-38.3-139-115s61.8-121.5,139-121.5s139,43.6,139,121.5
	S392.8,679,315.5,679z M732.6,679c-77.3,0-139-38.3-139-115s61.8-121.5,139-121.5s139,43.6,139,121.5S809.9,679,732.6,679z"/>
<path fill="#EC3C34" d="M948.3,370c-0.6-0.9-1.5-0.9-2,0c-6.4,10-37.8,56.5-31,85.2c6.4,28.1,26.3,27.8,32.2,27.8
	c5.9,0,26.9-4.1,31-27.8C983.7,425.9,954.1,380.2,948.3,370z"/>
</svg>
