<?xml version="1.0" standalone="no"?><!-- Generator: Gravit.io --><svg xmlns="http://www.w3.org/2000/svg" xmlns:xlink="http://www.w3.org/1999/xlink" style="isolation:isolate" viewBox="0 0 100 50" width="100" height="50"><g id="null"><path d="M 72.5 25 C 72.5 37.418 62.418 47.5 50 47.5 C 37.582 47.5 27.5 37.418 27.5 25 C 27.5 12.582 37.582 2.5 50 2.5 C 62.418 2.5 72.5 12.582 72.5 25 Z M 66.5 25 C 66.5 34.107 59.107 41.5 50 41.5 C 40.893 41.5 33.5 34.107 33.5 25 C 33.5 15.893 40.893 8.5 50 8.5 C 59.107 8.5 66.5 15.893 66.5 25 Z" style="stroke:none;fill:#8B8B8B;stroke-miterlimit:10;fill-rule:evenodd;"/><rect x="0" y="22" width="30" height="6" transform="matrix(-1,0,0,-1,30,50)" fill="rgb(139,139,139)"/><rect x="41.5" y="22" width="17" height="6" transform="matrix(-1,0,0,-1,100,50)" fill="rgb(139,139,139)"/><path d=" M 44.5 25 C 44.5 26.656 43.156 28 41.5 28 C 39.844 28 38.5 26.656 38.5 25 C 38.5 23.344 39.844 22 41.5 22 C 43.156 22 44.5 23.344 44.5 25 Z " fill="rgb(139,139,139)"/><path d=" M 61.5 25 C 61.5 26.656 60.156 28 58.5 28 C 56.844 28 55.5 26.656 55.5 25 C 55.5 23.344 56.844 22 58.5 22 C 60.156 22 61.5 23.344 61.5 25 Z " fill="rgb(139,139,139)"/></g></svg>