<?xml version="1.0" standalone="no"?><!-- Generator: Gravit.io --><svg xmlns="http://www.w3.org/2000/svg" xmlns:xlink="http://www.w3.org/1999/xlink" style="isolation:isolate" viewBox="0 0 100 50" width="100" height="50"><g id="null"><path d="M 72.5 25 C 72.5 37.418 62.418 47.5 50 47.5 C 37.582 47.5 27.5 37.418 27.5 25 C 27.5 12.582 37.582 2.5 50 2.5 C 62.418 2.5 72.5 12.582 72.5 25 Z M 66.5 25 C 66.5 34.107 59.107 41.5 50 41.5 C 40.893 41.5 33.5 34.107 33.5 25 C 33.5 15.893 40.893 8.5 50 8.5 C 59.107 8.5 66.5 15.893 66.5 25 Z" style="stroke:none;fill:#66CC70;stroke-miterlimit:10;fill-rule:evenodd;"/><rect x="0" y="22" width="30" height="6" transform="matrix(-1,0,0,-1,30,50)" fill="rgb(102,204,112)"/><rect x="44.75" y="21.991" width="17" height="6" transform="matrix(-0.5,0.866,-0.866,-0.5,101.518,-8.63)" fill="rgb(102,204,112)"/><path d=" M 50.5 29.754 C 51.934 30.582 52.426 32.418 51.598 33.852 C 50.77 35.286 48.934 35.778 47.5 34.95 C 46.066 34.122 45.574 32.286 46.402 30.852 C 47.23 29.418 49.066 28.926 50.5 29.754 Z " fill="rgb(102,204,112)"/><path d=" M 59 15.032 C 60.434 15.859 60.926 17.696 60.098 19.13 C 59.27 20.564 57.434 21.056 56 20.228 C 54.566 19.4 54.074 17.564 54.902 16.13 C 55.73 14.696 57.566 14.204 59 15.032 Z " fill="rgb(102,204,112)"/><rect x="42.379" y="26.223" width="8.032" height="6" transform="matrix(-0.596,-0.803,0.803,-0.596,50.609,83.893)" fill="rgb(102,204,112)"/><path d=" M 45.789 28.408 C 44.46 29.395 42.579 29.118 41.592 27.789 C 40.604 26.46 40.881 24.579 42.21 23.592 C 43.539 22.604 45.42 22.881 46.408 24.21 C 47.395 25.539 47.118 27.42 45.789 28.408 Z " fill="rgb(102,204,112)"/><path d=" M 50.579 34.855 C 49.25 35.842 47.37 35.565 46.382 34.236 C 45.395 32.907 45.672 31.026 47.001 30.039 C 48.33 29.051 50.211 29.329 51.198 30.658 C 52.186 31.987 51.908 33.867 50.579 34.855 Z " fill="rgb(102,204,112)"/></g></svg>