<?xml version="1.0" standalone="no"?><!-- Generator: Gravit.io --><svg xmlns="http://www.w3.org/2000/svg" xmlns:xlink="http://www.w3.org/1999/xlink" style="isolation:isolate" viewBox="0 0 100 50" width="100" height="50"><g id="null"><path d="M 27.5 25 C 27.5 12.582 37.582 2.5 50 2.5 C 62.418 2.5 72.5 12.582 72.5 25 C 72.5 37.418 62.418 47.5 50 47.5 C 37.582 47.5 27.5 37.418 27.5 25 Z M 33.5 25 C 33.5 15.893 40.893 8.5 50 8.5 C 59.107 8.5 66.5 15.893 66.5 25 C 66.5 34.107 59.107 41.5 50 41.5 C 40.893 41.5 33.5 34.107 33.5 25 Z" style="stroke:none;fill:#FF9A95;stroke-miterlimit:10;fill-rule:evenodd;"/><rect x="70" y="22" width="30" height="6" transform="matrix(1,0,0,1,0,0)" fill="rgb(255,154,149)"/></g><rect x="41.5" y="22" width="17" height="6" transform="matrix(-0.707,0.707,-0.707,-0.707,103.033,7.322)" fill="rgb(255,154,149)"/><path d=" M 46.111 28.889 C 47.282 30.06 47.282 31.961 46.111 33.132 C 44.94 34.303 43.039 34.303 41.868 33.132 C 40.697 31.961 40.697 30.06 41.868 28.889 C 43.039 27.718 44.94 27.718 46.111 28.889 Z " fill="rgb(255,154,149)"/><path d=" M 58.132 16.868 C 59.303 18.039 59.303 19.94 58.132 21.111 C 56.961 22.282 55.06 22.282 53.889 21.111 C 52.718 19.94 52.718 18.039 53.889 16.868 C 55.06 15.697 56.961 15.697 58.132 16.868 Z " fill="rgb(255,154,149)"/><rect x="41.5" y="22" width="17" height="6" transform="matrix(-0.707,-0.707,0.707,-0.707,67.678,78.033)" fill="rgb(255,154,149)"/><path d=" M 46.111 21.111 C 44.94 22.282 43.039 22.282 41.868 21.111 C 40.697 19.94 40.697 18.039 41.868 16.868 C 43.039 15.697 44.94 15.697 46.111 16.868 C 47.282 18.039 47.282 19.94 46.111 21.111 Z " fill="rgb(255,154,149)"/><path d=" M 58.132 33.132 C 56.961 34.303 55.06 34.303 53.889 33.132 C 52.718 31.961 52.718 30.06 53.889 28.889 C 55.06 27.718 56.961 27.718 58.132 28.889 C 59.303 30.06 59.303 31.961 58.132 33.132 Z " fill="rgb(255,154,149)"/></svg>