<?xml version="1.0" standalone="no"?><!-- Generator: Gravit.io --><svg xmlns="http://www.w3.org/2000/svg" xmlns:xlink="http://www.w3.org/1999/xlink" style="isolation:isolate" viewBox="0 0 100 50" width="100" height="50"><path d=" M 72.5 25 C 72.5 37.418 62.418 47.5 50 47.5 C 37.582 47.5 27.5 37.418 27.5 25 C 27.5 12.582 37.582 2.5 50 2.5 C 62.418 2.5 72.5 12.582 72.5 25 Z  M 66.5 25 C 66.5 34.107 59.107 41.5 50 41.5 C 40.893 41.5 33.5 34.107 33.5 25 C 33.5 15.893 40.893 8.5 50 8.5 C 59.107 8.5 66.5 15.893 66.5 25 Z " fill-rule="evenodd" fill="rgb(102,204,112)"/><rect x="0" y="22" width="30" height="6" transform="matrix(-1,0,0,-1,30,50)" fill="rgb(102,204,112)"/><rect x="70" y="22" width="30" height="6" transform="matrix(-1,0,0,-1,170,50)" fill="rgb(102,204,112)"/><rect x="44" y="21.953" width="17" height="6" transform="matrix(-0.5,0.866,-0.866,-0.5,100.36,-8.037)" fill="rgb(102,204,112)"/><path d=" M 49.75 29.716 C 51.184 30.544 51.676 32.38 50.848 33.814 C 50.02 35.248 48.184 35.74 46.75 34.912 C 45.316 34.084 44.824 32.248 45.652 30.814 C 46.48 29.38 48.316 28.888 49.75 29.716 Z " fill="rgb(102,204,112)"/><path d=" M 58.25 14.994 C 59.684 15.821 60.176 17.658 59.348 19.092 C 58.52 20.526 56.684 21.018 55.25 20.19 C 53.816 19.362 53.324 17.526 54.152 16.092 C 54.98 14.658 56.816 14.166 58.25 14.994 Z " fill="rgb(102,204,112)"/><rect x="41.629" y="26.185" width="8.032" height="6" transform="matrix(-0.596,-0.803,0.803,-0.596,49.442,83.23)" fill="rgb(102,204,112)"/><path d=" M 45.039 28.37 C 43.71 29.357 41.829 29.08 40.842 27.751 C 39.854 26.422 40.131 24.541 41.46 23.554 C 42.789 22.566 44.67 22.843 45.658 24.172 C 46.645 25.501 46.368 27.382 45.039 28.37 Z " fill="rgb(102,204,112)"/><path d=" M 49.829 34.817 C 48.5 35.804 46.62 35.527 45.632 34.198 C 44.645 32.869 44.922 30.988 46.251 30.001 C 47.58 29.013 49.461 29.291 50.448 30.62 C 51.436 31.949 51.158 33.829 49.829 34.817 Z " fill="rgb(102,204,112)"/></svg>